<svg xmlns="http://www.w3.org/2000/svg" viewBox="0 0 100 100" fill="none" stroke="#be185d" stroke-width="2" stroke-linecap="round" stroke-linejoin="round">
  <path d="M20 60 L30 90 H70 L80 60" fill="#fbcfe8" />
  <path d="M20 60 Q25 90 30 90" stroke="none" /> 
  <path d="M30 60 L35 90" stroke="#db2777" stroke-width="1" />
  <path d="M40 60 L45 90" stroke="#db2777" stroke-width="1" />
  <path d="M50 60 L50 90" stroke="#db2777" stroke-width="1" />
  <path d="M60 60 L55 90" stroke="#db2777" stroke-width="1" />
  <path d="M70 60 L65 90" stroke="#db2777" stroke-width="1" />
  
  <path d="M15 60 Q10 40 25 35 Q20 15 50 10 Q80 15 75 35 Q90 40 85 60" fill="#be185d" stroke="none" />
  <path d="M15 60 C15 60 25 30 50 30 C75 30 85 60 85 60" stroke="#fff" stroke-width="3" stroke-linecap="round" fill="none" opacity="0.3"/>
  
  <circlecx="50" cy="10" r="6" fill="#9d174d" />
</svg>